<svg xmlns="http://www.w3.org/2000/svg" width="10.992" height="14" viewBox="0 0 10.992 14">
  <path id="Path_418" data-name="Path 418" d="M231.767,171.155H223.6a.233.233,0,0,0-.233.233v.913l-.93,5.347a.217.217,0,0,0,0,.04l-.026,5.865a1.642,1.642,0,0,0,1.633,1.6h9.126a.232.232,0,0,0,.093-.02c.007,0,.011-.008.018-.012a.222.222,0,0,0,.059-.045l.006,0a.225.225,0,0,0,.016-.028.234.234,0,0,0,.023-.044.222.222,0,0,0,.01-.048.217.217,0,0,0,.008-.032v-7.054a1.545,1.545,0,0,0-.049-.393l-.828-4.844a.93.93,0,0,0-.756-1.476Zm0,.467a.467.467,0,1,1-.467.467A.467.467,0,0,1,231.767,171.622Zm-3.733,0h2.93a.926.926,0,0,0-.13.467h-2.8Zm-1.4,0h.933v.467h-.933Zm0,.933h.933V174.1l-.393-.131a.232.232,0,0,0-.147,0l-.393.131Zm-2.8-.933h2.333v.467h-2.333Zm5.833,13.067h-5.626a1.173,1.173,0,0,1-1.142-.933h6.768Zm0-1.4h-6.792l.025-5.367h6.767Zm.037-5.833h-6.76l.852-4.9h2.37v1.867a.233.233,0,0,0,.307.221l.626-.21.626.21a.236.236,0,0,0,.074.012.233.233,0,0,0,.233-.233v-1.867h2.523Zm.43.253.882-5.071a.938.938,0,0,0,.285.255v10.523l-1.167,1Zm.4,6.98,1-.859,1,.859Zm2.366-7.115a1.179,1.179,0,0,1,.038.294v6.546l-1.167-1V173.022a.924.924,0,0,0,.339-.066Z" transform="translate(-222.408 -171.155)" fill="#515968"/>
</svg>
