<svg xmlns="http://www.w3.org/2000/svg" width="19.942" height="13.74" viewBox="0 0 19.942 13.74">
  <g id="scooter" transform="translate(-16 -72)">
    <g id="Group_331" data-name="Group 331" transform="translate(0 72)">
      <g id="Group_330" data-name="Group 330" transform="translate(0 0)">
        <path id="Path_410" data-name="Path 410" d="M17.552,80.959a2.379,2.379,0,0,0-.77.128l-.329-.659a3.117,3.117,0,0,1,2.348.058.323.323,0,0,0,.258-.592,3.76,3.76,0,0,0-2.9-.046l-1.2-2.394a1.013,1.013,0,0,0,.174.015h.689a.323.323,0,0,0,.323-.323V75.769a.323.323,0,0,0-.323-.323H15.14a1.013,1.013,0,0,0-.9.554l-.342-.683a1.007,1.007,0,0,0-.905-.56h-.608a.323.323,0,0,0,0,.646h.608a.364.364,0,0,1,.327.2l.837,1.673L14,77.357a1.007,1.007,0,0,0-.56.905v3.386H10.66a1.056,1.056,0,0,1-1.055-1.055v-1.4h.022a1.012,1.012,0,1,0,0-2.024H6.87a1.009,1.009,0,0,0-.711.292V72.668A.668.668,0,0,0,5.492,72H.668A.668.668,0,0,0,0,72.668v4.824a.668.668,0,0,0,.668.668h.725a.841.841,0,0,0,.82,1.034H3.95a4.318,4.318,0,0,0-.561.427,4,4,0,0,0-1.217,1.912.9.9,0,0,0,.169.768.884.884,0,0,0,.7.337H3.21a2.39,2.39,0,1,0,4.65,1.035h6.246a.323.323,0,0,0,.323-.323,3.109,3.109,0,0,1,1.446-2.631l.329.658a2.389,2.389,0,1,0,1.348-.417ZM6.87,77.815H9.627a.366.366,0,1,1,0,.732H6.87a.366.366,0,1,1,0-.732ZM.646,72.668a.022.022,0,0,1,.022-.022H5.492a.022.022,0,0,1,.022.022v.711H.646Zm.022,4.846a.022.022,0,0,1-.022-.022V74.024H5.513v3.467a.022.022,0,0,1-.022.022Zm1.545,1.034a.2.2,0,0,1-.2-.194.2.2,0,0,1,.151-.194H5.858c0,.007,0,.014,0,.021a1.007,1.007,0,0,0,.069.366Zm.825,3.445h0a.239.239,0,0,1-.191-.092.254.254,0,0,1-.047-.218,3.561,3.561,0,0,1,3.381-2.489A2.16,2.16,0,0,1,8.21,81.5c0,.241-.133.486-.388.487Zm2.819,1.358a.366.366,0,1,1-.366-.366A.367.367,0,0,1,5.858,83.349Zm-.366,1.744A1.743,1.743,0,0,1,3.9,82.636l.876,0a1.012,1.012,0,1,0,1.428,0l.876,0a1.743,1.743,0,0,1-1.589,2.464Zm8.367-2.5a3.773,3.773,0,0,0-.062.43H7.86a2.4,2.4,0,0,0-.089-.4h.052A1.064,1.064,0,0,0,8.856,81.5a3.278,3.278,0,0,0-.638-1.943,2.7,2.7,0,0,0-.326-.359H8.959v1.4a1.7,1.7,0,0,0,1.7,1.7h3.1a.321.321,0,0,0,.191-.063A3.725,3.725,0,0,0,13.858,82.6Zm1.281-6.5h.366v.732H15.14a.366.366,0,1,1,0-.732Zm-1.055,5.781V78.262a.364.364,0,0,1,.2-.327l.157-.079,1.141,2.282A3.784,3.784,0,0,0,14.085,81.873Zm3.467,3.221A1.744,1.744,0,1,1,19.3,83.349,1.746,1.746,0,0,1,17.552,85.094Z" transform="translate(16 -72)" fill="#515968"/>
        <path id="Path_411" data-name="Path 411" d="M385.012,312a1.012,1.012,0,1,0,1.012,1.012A1.013,1.013,0,0,0,385.012,312Zm0,1.378a.366.366,0,1,1,.366-.366A.367.367,0,0,1,385.012,313.378Z" transform="translate(-367.46 -301.663)" fill="#515968"/>
      </g>
    </g>
  </g>
</svg>
