<svg xmlns="http://www.w3.org/2000/svg" width="14.343" height="14.343" viewBox="0 0 14.343 14.343">
  <g id="Group_287" data-name="Group 287" transform="translate(-1557 4214)">
    <g id="information_1_" data-name="information (1)" transform="translate(1557 -4214)">
      <g id="Group_286" data-name="Group 286">
        <g id="Group_285" data-name="Group 285">
          <path id="Path_399" data-name="Path 399" d="M192.066,106.819a1.429,1.429,0,0,0,.079.144c.026.039.066.079.092.118a1.184,1.184,0,0,0,.131.118.442.442,0,0,0,.157.079.649.649,0,0,0,.17.052.806.806,0,0,0,.17.013.748.748,0,0,0,.17-.013.469.469,0,0,0,.144-.052h.013a.977.977,0,0,0,.157-.092.848.848,0,0,0,.118-.1l.013-.013a.721.721,0,0,0,.092-.118.41.41,0,0,0,.066-.131c0-.013,0-.013.013-.026a.848.848,0,0,0,.052-.17,1.116,1.116,0,0,0,0-.341,1.218,1.218,0,0,0-.052-.17.744.744,0,0,0-.157-.236l-.026-.026a1.147,1.147,0,0,0-.131-.1c-.052-.026-.092-.052-.144-.079a.739.739,0,0,0-.157-.052.806.806,0,0,0-.17-.013.747.747,0,0,0-.17.013.739.739,0,0,0-.157.052h-.013a1.43,1.43,0,0,0-.144.079,1.147,1.147,0,0,0-.131.1.848.848,0,0,0-.1.118,1.429,1.429,0,0,0-.079.144.738.738,0,0,0-.052.157.807.807,0,0,0-.013.17.748.748,0,0,0,.013.17A1.19,1.19,0,0,0,192.066,106.819Z" transform="translate(-185.707 -102.139)"/>
          <path id="Path_400" data-name="Path 400" d="M179.96,184.353h-.3v-3.212a.338.338,0,0,0-.341-.341h-1.377a.338.338,0,0,0-.341.341v.708a.338.338,0,0,0,.341.341h.275v2.176h-.275a.338.338,0,0,0-.341.341v.708a.339.339,0,0,0,.341.341h2.019a.339.339,0,0,0,.341-.341v-.708A.35.35,0,0,0,179.96,184.353Z" transform="translate(-171.779 -174.874)"/>
          <path id="Path_401" data-name="Path 401" d="M7.171,0a7.171,7.171,0,1,0,7.171,7.171A7.173,7.173,0,0,0,7.171,0Zm0,13.4A6.227,6.227,0,1,1,13.4,7.171,6.233,6.233,0,0,1,7.171,13.4Z"/>
        </g>
      </g>
    </g>
  </g>
</svg>
