<svg xmlns="http://www.w3.org/2000/svg" width="26.829" height="40" viewBox="0 0 26.829 40">
  <path id="Path_388" data-name="Path 388" d="M129.951,735.879h.519l.139-.357.693,0,.148.361h.321l.148-.361.693,0,.139.357h.519v-1.1h-.519l-.139.357-.693,0-.148-.361h-.321l-.148.361-.693,0-.139-.357h-.519v1.1Zm15.223-7.04a5.448,5.448,0,0,1,4.973,5.088h.682v1H138.493v-1h.78a5.448,5.448,0,0,1,4.973-5.088c0-.007,0-.013,0-.02a.464.464,0,1,1,.929,0C145.174,728.826,145.174,728.832,145.174,728.839Zm-9.736,23.622-1.064,14.109-.019.478c1.193.39,1.171,1.279,1.171,1.279h-8.483s-.022-.889,1.171-1.279l-.018-.478-1.064-14.113h-.681l-.423-6.369h-.785A1.246,1.246,0,0,1,124,744.846v-8.122a1.245,1.245,0,0,1,1.242-1.242h.487q.122,0,.255,0h.857v.017c1.98.033,2.59-.017,2.59-.017l2.034,7.269h-3.509v7.888h4.75v-7.888h-.764l0-.028,1.93-7.2h1.889v-.005h1.616a1.087,1.087,0,0,1,.734.285l2.72,3.514a.471.471,0,0,0,.759-.087c.3-.43,1.34-2.36,1.621-2.883a1.175,1.175,0,1,1,2.044,1.113l-2.711,5.693s-.824,1.93-2.753-.022c-1.327-1.341-1.813-1.689-2.043-1.282l-1.568,10.609Zm-3.828-24.134a3.154,3.154,0,1,1-3.155,3.155A3.155,3.155,0,0,1,131.61,728.327Z" transform="translate(-124 -728.327)" fill="#fff" fill-rule="evenodd"/>
</svg>
